<svg xmlns="http://www.w3.org/2000/svg" version="1.0" preserveAspectRatio="xMidYMid meet" viewBox="72 142.16 381.92 136.68">

<g transform="translate(0.000000,500.000000) scale(0.100000,-0.100000)" fill="#000000" stroke="none">
<path d="M1450 3556 c-170 -71 -454 -296 -613 -485 -88 -104 -117 -156 -117 -204 0 -49 30 -73 89 -70 50 2 142 33 175 58 35 27 12 24 -54 -5 -64 -29 -132 -38 -159 -21 -10 6 -12 19 -7 44 27 142 519 586 732 661 47 16 64 11 64 -18 0 -111 -332 -735 -563 -1057 -51 -72 -57 -85 -48 -106 6 -13 16 -23 23 -23 7 0 63 62 123 138 191 240 404 482 570 648 223 224 355 319 433 312 36 -3 37 -4 35 -41 -4 -55 -60 -167 -237 -472 -244 -419 -294 -535 -268 -624 15 -47 44 -71 99 -78 84 -11 183 42 183 98 0 16 -4 29 -8 29 -4 0 -25 -20 -45 -45 -42 -50 -97 -72 -140 -56 -37 14 -50 46 -43 101 15 112 70 227 267 556 211 353 262 468 238 531 -19 50 -100 53 -187 9 -129 -66 -352 -276 -613 -581 -142 -165 -189 -215 -189 -201 0 3 52 94 115 201 143 243 223 394 269 511 43 110 46 155 11 189 -30 31 -63 31 -135 1z"/>
<path d="M4125 3391 c-63 -29 -136 -81 -195 -136 -32 -31 -45 -35 -145 -49 -143 -21 -266 -46 -285 -58 -12 -7 -11 -8 5 -4 21 6 232 39 319 51 l49 7 -50 -59 c-80 -93 -155 -196 -207 -283 -29 -49 -54 -80 -64 -80 -9 0 -68 -25 -130 -55 l-112 -54 -25 37 c-29 43 -30 53 -10 91 16 31 69 61 109 61 32 0 33 -18 5 -54 -31 -40 -12 -47 22 -8 33 37 36 54 13 76 -41 41 -154 -2 -189 -72 -34 -67 -228 -212 -252 -188 -12 12 18 82 57 134 22 29 38 57 35 63 -10 15 -41 10 -66 -9 -20 -17 -25 -17 -51 -5 -38 20 -87 3 -153 -52 -74 -62 -111 -85 -134 -85 -26 0 -26 -2 6 66 27 55 28 56 9 70 -11 8 -25 14 -32 14 -6 0 -41 -30 -78 -66 -36 -36 -66 -62 -66 -59 0 4 12 28 27 54 15 28 24 55 20 64 -13 33 -53 18 -123 -45 -38 -34 -82 -73 -97 -87 -26 -23 -25 -19 13 41 23 37 39 72 35 78 -10 17 -31 11 -44 -12 -15 -27 -169 -149 -205 -162 -14 -6 -29 -7 -32 -3 -13 13 16 82 56 135 22 29 38 57 35 63 -10 15 -41 10 -66 -9 -20 -17 -25 -17 -51 -4 -26 13 -34 12 -74 -3 -77 -29 -153 -136 -134 -190 18 -51 71 -40 150 31 l40 36 0 -30 c0 -33 22 -62 46 -62 24 0 69 27 131 77 40 33 53 40 42 23 -43 -67 -44 -69 -32 -81 19 -19 45 -2 153 95 52 47 98 86 103 86 4 0 -6 -26 -22 -57 -21 -43 -26 -64 -20 -80 5 -13 12 -23 16 -23 5 0 42 34 83 75 41 41 78 75 82 75 4 0 -2 -20 -13 -45 -21 -48 -19 -79 7 -89 18 -7 80 17 107 42 18 16 18 15 11 -13 -14 -54 0 -95 33 -95 23 0 71 28 114 67 l39 35 0 -30 c0 -34 22 -62 49 -62 22 0 96 47 153 96 82 72 72 70 103 19 15 -26 25 -48 23 -49 -1 -2 -43 -28 -91 -60 -103 -66 -213 -169 -222 -209 -25 -101 157 -65 293 59 73 66 95 108 90 177 l-3 51 108 54 c59 31 109 53 112 51 2 -3 -9 -39 -25 -81 -38 -97 -46 -149 -30 -188 30 -72 128 -41 317 98 102 76 98 74 100 44 1 -31 36 -62 68 -62 58 0 184 70 279 155 54 48 37 44 -32 -7 -67 -50 -195 -118 -222 -118 -36 0 -50 12 -50 41 0 27 2 29 40 29 63 0 140 45 140 81 0 10 -11 26 -25 35 -40 26 -97 4 -162 -61 -54 -54 -224 -175 -298 -212 -60 -31 -99 -37 -114 -19 -43 52 124 369 321 611 l74 90 89 8 c126 11 401 3 450 -14 32 -11 41 -20 46 -44 5 -24 7 -26 13 -13 13 30 2 53 -36 71 -44 22 -189 39 -273 32 -33 -2 -105 -7 -160 -10 l-99 -6 24 27 c44 46 138 112 187 130 62 22 75 34 38 34 -17 0 -57 -13 -90 -29z m-10 -611 c15 -24 -111 -97 -132 -77 -9 10 27 46 67 68 40 21 56 23 65 9z m-2025 -18 c0 -32 -170 -185 -187 -168 -19 19 44 115 106 161 41 30 81 33 81 7z m880 0 c0 -32 -170 -185 -187 -168 -19 19 44 115 106 161 41 30 81 33 81 7z m321 -195 c-27 -71 -228 -227 -292 -227 -65 0 47 130 201 233 78 53 85 55 92 37 4 -11 4 -31 -1 -43z"/>
</g>
</svg>