<svg xmlns="http://www.w3.org/2000/svg" version="1.0" preserveAspectRatio="xMidYMid meet" viewBox="137 181.09 226.58 104.91">

<g transform="translate(0.000000,500.000000) scale(0.100000,-0.100000)" fill="#000000" stroke="none">
<path d="M1815 3180 c-44 -17 -50 -37 -50 -155 0 -97 3 -116 19 -134 19 -21 79 -29 102 -13 19 13 34 50 34 86 0 33 -2 36 -30 36 -23 0 -30 -5 -30 -19 0 -26 -10 -51 -21 -51 -5 0 -9 45 -9 100 0 55 4 100 9 100 11 0 21 -25 21 -51 0 -14 7 -19 30 -19 27 0 30 3 30 29 0 49 -16 78 -51 90 -17 6 -32 11 -33 10 -1 0 -10 -4 -21 -9z"/>
<path d="M2943 3182 c-43 -6 -53 -37 -53 -157 0 -98 2 -114 20 -133 27 -29 83 -29 110 -2 18 18 20 33 20 138 0 101 -3 121 -17 134 -21 18 -49 25 -80 20z m37 -158 c0 -77 -3 -94 -15 -94 -12 0 -15 17 -15 93 0 52 3 97 6 100 17 17 24 -12 24 -99z"/>
<path d="M3150 3183 c-33 -12 -50 -37 -50 -74 0 -31 8 -48 45 -89 45 -51 58 -90 30 -90 -10 0 -15 10 -15 30 0 27 -3 30 -30 30 -28 0 -30 -2 -30 -40 0 -50 27 -80 73 -80 50 0 69 19 74 77 5 50 4 53 -41 101 -25 27 -46 56 -46 66 0 23 17 20 25 -4 5 -14 15 -20 37 -20 29 0 30 2 24 32 -4 18 -12 38 -19 44 -15 15 -57 24 -77 17z"/>
<path d="M3530 3180 c-31 -7 -53 -51 -45 -90 3 -16 24 -49 46 -73 21 -25 39 -55 39 -67 0 -31 -24 -20 -28 13 -3 23 -8 27 -34 27 -30 0 -31 -1 -25 -41 7 -55 31 -79 77 -79 92 0 103 111 18 197 -33 34 -40 45 -30 55 10 10 14 8 18 -10 5 -16 14 -22 35 -22 25 0 29 4 29 28 0 46 -47 75 -100 62z"/>
<path d="M1370 3025 l0 -155 30 0 30 0 0 71 c0 52 3 70 13 67 7 -3 13 -29 15 -71 3 -67 3 -67 32 -67 l30 0 0 66 c0 36 -5 74 -10 84 -7 13 -7 21 0 25 13 8 13 91 0 116 -9 16 -22 19 -75 19 l-65 0 0 -155z m90 70 c0 -16 -6 -25 -15 -25 -9 0 -15 9 -15 25 0 16 6 25 15 25 9 0 15 -9 15 -25z"/>
<path d="M1580 3025 l0 -155 65 0 65 0 0 30 c0 27 -3 30 -30 30 -28 0 -30 3 -30 35 0 31 3 35 25 35 21 0 25 5 25 30 0 25 -4 30 -25 30 -21 0 -25 5 -25 30 0 27 3 30 30 30 27 0 30 3 30 30 l0 30 -65 0 -65 0 0 -155z"/>
<path d="M1980 3025 l0 -155 65 0 65 0 0 30 c0 28 -3 30 -35 30 -33 0 -35 2 -35 35 0 32 2 35 30 35 27 0 30 3 30 30 0 27 -3 30 -30 30 -27 0 -30 3 -30 30 0 27 3 30 30 30 27 0 30 3 30 30 l0 30 -60 0 -60 0 0 -155z"/>
<path d="M2160 3025 l0 -155 30 0 30 0 1 68 2 67 15 -67 c15 -67 15 -68 49 -68 l33 0 0 155 0 155 -35 0 -35 0 -1 -52 -2 -53 -10 53 c-10 50 -11 52 -43 52 l-34 0 0 -155z"/>
<path d="M2370 3150 c0 -23 4 -30 20 -30 19 0 20 -7 20 -125 l0 -125 30 0 30 0 0 125 c0 118 1 125 20 125 16 0 20 7 20 30 l0 30 -70 0 -70 0 0 -30z"/>
<path d="M2680 3025 l0 -155 30 0 c30 0 30 0 30 59 l0 59 35 6 c42 8 55 30 55 93 0 74 -18 93 -91 93 l-59 0 0 -155z m88 63 c-4 -46 -28 -49 -28 -4 0 26 4 36 16 36 11 0 14 -8 12 -32z"/>
<path d="M3300 3150 c0 -23 4 -30 20 -30 19 0 20 -7 20 -125 l0 -125 30 0 30 0 0 124 c0 115 1 124 20 129 14 3 20 14 20 31 0 26 -1 26 -70 26 l-70 0 0 -30z"/>
<path d="M2698 2761 l43 -6 -72 -60 c-86 -72 -119 -95 -138 -95 -8 0 4 12 26 28 62 42 124 98 116 105 -3 4 -16 -5 -29 -18 -13 -14 -28 -25 -34 -25 -5 0 -10 -5 -10 -11 0 -5 -5 -7 -10 -4 -6 4 -10 3 -9 -2 3 -20 -2 -25 -15 -14 -11 10 -16 8 -21 -9 -4 -11 -11 -17 -17 -14 -7 5 -8 2 -3 -6 5 -8 3 -11 -5 -8 -25 8 -21 23 16 69 34 41 34 42 3 8 -19 -20 -47 -52 -62 -72 l-28 -37 -102 -1 c-56 -1 -113 -4 -127 -8 -14 -4 18 -6 71 -3 133 6 189 -12 215 -71 22 -49 90 -127 111 -127 8 0 13 6 10 13 -18 40 -67 160 -67 162 0 2 15 6 33 8 28 3 27 4 -10 5 -50 2 -62 15 -28 30 31 14 195 151 195 163 0 5 -21 8 -47 7 l-48 -1 43 -6z m-198 -141 c0 -5 -5 -10 -11 -10 -5 0 -7 5 -4 10 3 6 8 10 11 10 2 0 4 -4 4 -10z m29 -55 c16 -14 35 -42 42 -63 6 -20 20 -54 31 -74 10 -21 16 -38 12 -38 -12 0 -62 60 -51 61 7 0 3 4 -7 8 -11 4 -21 16 -22 27 -2 10 -8 20 -13 22 -17 6 -13 22 7 23 16 1 16 2 -1 6 -10 3 -29 15 -42 29 -22 22 -22 24 -5 24 10 0 32 -11 49 -25z"/>
<path d="M2628 2753 c7 -3 16 -2 19 1 4 3 -2 6 -13 5 -11 0 -14 -3 -6 -6z"/>
<path d="M2585 2740 c-3 -6 1 -7 9 -4 18 7 21 14 7 14 -6 0 -13 -4 -16 -10z"/>
<path d="M1790 2702 c8 -5 26 -13 40 -16 17 -5 20 -4 10 2 -8 5 -26 13 -40 16 -17 5 -20 4 -10 -2z"/>
<path d="M2938 2683 c18 -2 45 -2 60 0 15 2 0 4 -33 4 -33 0 -45 -2 -27 -4z"/>
<path d="M1902 2651 c25 -16 49 -34 52 -40 4 -6 12 -8 18 -5 6 4 8 2 5 -3 -4 -6 0 -16 8 -23 10 -9 15 -32 15 -77 0 -64 20 -133 39 -133 7 0 10 20 9 48 l-1 47 -7 -45 c-6 -42 -11 -39 -14 9 0 11 -4 23 -8 27 -11 10 -10 46 0 40 5 -3 9 1 9 9 0 8 -4 12 -9 9 -4 -3 -8 2 -8 11 0 10 5 13 13 9 8 -5 7 -2 -2 9 -8 10 -11 20 -8 24 4 3 1 13 -6 21 -10 13 -9 14 10 3 13 -6 26 -23 29 -36 3 -14 10 -22 16 -19 5 3 15 2 21 -3 7 -4 2 2 -11 13 -14 12 -22 26 -19 32 4 5 50 17 102 27 53 10 90 22 84 26 -7 4 -23 3 -36 -2 -34 -13 -37 -11 -22 9 7 9 2 7 -12 -5 -26 -23 -76 -33 -63 -12 3 6 -5 3 -20 -6 -15 -10 -26 -13 -26 -6 0 6 -8 8 -17 4 -42 -14 6 19 53 37 27 10 42 19 33 20 -8 0 -38 -11 -65 -25 -63 -32 -76 -31 -141 5 -67 38 -81 39 -21 1z"/>
<path d="M2845 2666 c-16 -7 -38 -23 -49 -34 -20 -23 -113 -62 -146 -62 -11 0 -20 -3 -20 -6 0 -3 33 -45 74 -92 62 -74 87 -94 160 -134 48 -27 91 -48 97 -48 11 0 -19 62 -67 136 -39 63 -89 102 -157 125 l-51 17 42 12 c31 10 51 10 86 1 69 -17 104 -13 191 23 75 30 100 54 65 63 -13 4 -13 3 0 -6 19 -13 18 -14 -73 -50 -47 -19 -94 -31 -120 -30 -40 1 -39 2 28 19 74 19 154 50 120 47 -11 -2 -26 -6 -32 -10 -12 -8 -17 -2 -14 16 1 5 -3 6 -9 2 -6 -3 -7 -11 -4 -17 5 -7 2 -8 -7 -2 -22 14 -32 12 -55 -9 -26 -22 -43 -6 -23 21 10 13 8 12 -9 -2 -15 -13 -19 -22 -11 -26 7 -5 5 -9 -5 -13 -9 -4 -15 -3 -15 1 3 21 -3 23 -20 8 -17 -16 -19 -16 -17 -2 3 23 16 34 61 50 22 8 33 15 25 15 -8 0 -28 -6 -45 -13z m94 -43 c-6 -7 -18 -13 -26 -13 -12 0 -13 3 -4 13 6 8 17 14 26 14 11 0 12 -4 4 -14z m-249 -95 c0 -5 4 -7 9 -3 5 3 16 -1 24 -10 13 -12 16 -12 21 0 3 8 -3 17 -15 20 -11 4 -18 9 -15 12 12 12 117 -50 144 -85 33 -42 96 -151 91 -156 -2 -2 -35 14 -74 36 -90 51 -177 134 -169 163 4 14 2 16 -4 7 -7 -11 -11 -11 -19 0 -22 28 -24 38 -9 32 9 -3 16 -10 16 -16z"/>
<path d="M2753 2498 c-2 -17 0 -19 7 -9 7 12 11 12 25 -2 9 -10 13 -22 9 -29 -5 -8 0 -7 11 2 17 14 18 13 11 -14 -7 -27 -6 -28 10 -15 10 8 15 9 12 4 -4 -6 -3 -17 3 -25 6 -10 9 -11 9 -2 0 22 19 13 26 -12 3 -14 15 -33 26 -43 21 -18 21 -18 8 7 -26 52 -82 120 -114 139 -41 26 -41 26 -43 -1z"/>
<path d="M2761 2454 c0 -11 3 -14 6 -6 3 7 2 16 -1 19 -3 4 -6 -2 -5 -13z"/>
<path d="M2215 2660 c27 -12 43 -12 25 0 -8 5 -22 9 -30 9 -10 0 -8 -3 5 -9z"/>
<path d="M2278 2637 c12 -7 19 -16 16 -20 -4 -4 -2 -7 4 -7 19 0 14 18 -7 30 -11 5 -23 10 -28 10 -4 -1 2 -6 15 -13z"/>
<path d="M2243 2603 c9 -2 23 -2 30 0 6 3 -1 5 -18 5 -16 0 -22 -2 -12 -5z"/>
<path d="M2188 2593 c7 -3 16 -2 19 1 4 3 -2 6 -13 5 -11 0 -14 -3 -6 -6z"/>
<path d="M2148 2583 c7 -3 16 -2 19 1 4 3 -2 6 -13 5 -11 0 -14 -3 -6 -6z"/>
<path d="M2078 2573 c12 -2 30 -2 40 0 9 3 -1 5 -23 4 -22 0 -30 -2 -17 -4z"/>
<path d="M2118 2508 c6 -6 12 -21 12 -32 0 -16 2 -18 9 -7 7 10 11 8 16 -10 4 -13 11 -26 14 -29 4 -3 12 -16 19 -30 12 -25 12 -25 7 5 -5 29 -5 29 10 10 9 -11 13 -25 11 -32 -7 -18 4 -44 15 -37 5 3 6 -2 3 -10 -3 -9 -10 -13 -15 -10 -5 3 -9 0 -9 -5 0 -6 9 -16 19 -23 16 -9 17 -16 9 -31 -7 -13 -7 -17 0 -13 6 3 13 -4 15 -16 2 -13 5 -2 6 24 0 27 -8 71 -19 100 -22 58 -20 75 4 31 8 -15 15 -23 16 -18 1 30 -79 119 -120 134 -27 9 -32 9 -22 -1z m102 -80 c0 -7 -5 -6 -13 1 -8 6 -17 8 -21 4 -4 -4 -4 0 0 10 5 14 9 15 20 6 8 -6 14 -16 14 -21z"/>
<path d="M2052 2490 c0 -14 2 -19 5 -12 2 6 2 18 0 25 -3 6 -5 1 -5 -13z"/>
<path d="M2245 2490 c-27 -4 -40 -8 -28 -8 12 -1 34 -13 50 -26 15 -12 35 -23 43 -23 8 0 25 -3 38 -7 37 -12 25 10 -18 30 -44 21 -49 30 -22 37 24 7 -3 5 -63 -3z"/>
<path d="M2338 2493 c6 -2 18 -2 25 0 6 3 1 5 -13 5 -14 0 -19 -2 -12 -5z"/>
<path d="M2388 2483 c7 -3 16 -2 19 1 4 3 -2 6 -13 5 -11 0 -14 -3 -6 -6z"/>
<path d="M2445 2463 c33 -17 85 -63 85 -74 0 -4 -10 -10 -22 -12 -20 -4 -19 -4 5 -6 16 0 27 4 27 12 0 24 -90 98 -117 97 -4 -1 6 -8 22 -17z"/>
<path d="M2385 2440 c3 -5 11 -10 16 -10 6 0 7 5 4 10 -3 6 -11 10 -16 10 -6 0 -7 -4 -4 -10z"/>
<path d="M2142 2420 c0 -14 2 -19 5 -12 2 6 2 18 0 25 -3 6 -5 1 -5 -13z"/>
<path d="M2395 2421 c-15 -6 -11 -9 20 -14 55 -9 65 -9 65 4 0 6 -8 8 -19 4 -11 -3 -22 -1 -26 5 -7 11 -12 12 -40 1z"/>
<path d="M2151 2374 c0 -11 3 -14 6 -6 3 7 2 16 -1 19 -3 4 -6 -2 -5 -13z"/>
<path d="M2408 2383 c12 -2 32 -2 45 0 12 2 2 4 -23 4 -25 0 -35 -2 -22 -4z"/>
<path d="M2161 2334 c0 -11 3 -14 6 -6 3 7 2 16 -1 19 -3 4 -6 -2 -5 -13z"/>
<path d="M2273 2290 c0 -25 2 -35 4 -22 2 12 2 32 0 45 -2 12 -4 2 -4 -23z"/>
<path d="M2173 2299 c6 -19 96 -159 102 -159 3 0 4 24 3 53 -1 51 -2 51 -5 8 l-4 -43 -51 78 c-28 44 -48 72 -45 63z"/>
</g>
</svg>