<svg xmlns="http://www.w3.org/2000/svg" version="1.0" preserveAspectRatio="xMidYMid meet" viewBox="55.3 171.35 383.61 119.67">

<g transform="translate(0.000000,500.000000) scale(0.100000,-0.100000)" fill="#000000" stroke="none">
<path d="M1215 3278 c-32 -18 -35 -28 -35 -119 0 -96 12 -119 66 -119 37 0 50 9 63 43 10 25 8 27 -13 27 -13 0 -26 -7 -30 -15 -3 -8 -12 -15 -21 -15 -12 0 -15 15 -15 80 0 65 3 80 15 80 9 0 18 -7 21 -15 10 -25 44 -18 44 9 0 40 -56 67 -95 44z"/>
<path d="M1402 3280 c-29 -12 -42 -48 -42 -115 0 -57 13 -105 33 -117 24 -15 74 -8 93 13 15 17 19 37 19 105 0 90 -8 108 -55 118 -14 3 -35 1 -48 -4z m56 -110 c2 -71 -7 -96 -32 -87 -13 5 -16 21 -16 75 0 72 4 85 30 80 11 -2 16 -19 18 -68z"/>
<path d="M2275 3278 c-32 -18 -35 -28 -35 -119 0 -97 12 -119 66 -119 56 0 69 19 72 112 3 70 1 87 -15 105 -22 27 -62 37 -88 21z m50 -118 c0 -63 -3 -75 -17 -78 -16 -3 -18 6 -18 78 0 72 2 81 18 78 14 -3 17 -15 17 -78z"/>
<path d="M3720 3283 c-43 -16 -50 -34 -50 -123 0 -98 12 -120 68 -120 47 0 72 30 72 85 0 45 0 45 -35 45 -28 0 -35 -4 -35 -20 0 -11 5 -20 11 -20 6 0 9 -10 7 -22 -2 -13 -10 -23 -18 -23 -12 0 -16 17 -18 78 -2 66 0 77 14 77 9 0 18 -9 21 -20 7 -27 53 -28 53 -1 0 39 -54 77 -90 64z"/>
<path d="M572 3183 c27 -147 26 -143 52 -143 21 0 24 6 30 61 4 34 9 59 11 57 3 -2 8 -29 12 -59 7 -48 11 -54 33 -54 23 0 25 6 45 115 21 114 21 115 2 118 -24 5 -37 -13 -37 -53 -1 -59 -17 -59 -24 -1 -7 50 -10 56 -31 56 -21 0 -24 -6 -31 -62 l-7 -63 -9 40 c-5 22 -11 50 -14 63 -3 15 -12 22 -28 22 l-23 0 19 -97z"/>
<path d="M830 3160 l0 -120 60 0 c53 0 60 2 60 19 0 16 -8 20 -37 23 -33 3 -38 7 -41 31 -3 23 0 27 22 27 34 0 37 37 4 42 -17 2 -24 11 -26 31 -3 26 -1 27 37 27 34 0 41 3 41 20 0 18 -7 20 -60 20 l-60 0 0 -120z"/>
<path d="M1010 3160 l0 -120 60 0 c53 0 60 2 60 19 0 16 -8 20 -37 23 l-38 3 -3 98 c-2 89 -4 97 -22 97 -19 0 -20 -7 -20 -120z"/>
<path d="M1560 3160 l0 -120 25 0 c24 0 25 2 25 78 1 70 2 75 14 53 l14 -24 15 29 c16 28 16 27 17 -53 0 -82 0 -83 25 -83 l25 0 0 120 c0 120 0 120 -24 120 -15 0 -30 -10 -41 -27 l-17 -26 -17 26 c-9 17 -24 27 -38 27 -23 0 -23 -2 -23 -120z"/>
<path d="M1780 3160 l0 -120 60 0 c53 0 60 2 60 19 0 16 -8 20 -37 23 -33 3 -38 7 -41 31 -3 23 0 27 22 27 34 0 37 37 4 42 -17 2 -24 11 -26 31 -3 26 -1 27 37 27 34 0 41 3 41 20 0 18 -7 20 -60 20 l-60 0 0 -120z"/>
<path d="M2040 3260 c0 -15 7 -20 25 -20 l25 0 0 -100 0 -100 25 0 25 0 0 100 0 100 25 0 c18 0 25 5 25 20 0 18 -7 20 -75 20 -68 0 -75 -2 -75 -20z"/>
<path d="M2530 3161 l0 -121 25 0 c24 0 25 3 26 63 l1 62 19 -62 c18 -59 22 -63 49 -63 l30 0 0 120 0 120 -25 0 c-24 0 -25 -2 -26 -67 l-1 -68 -22 65 c-20 56 -26 65 -49 68 l-27 3 0 -120z"/>
<path d="M2730 3160 l0 -120 65 0 c58 0 65 2 65 20 0 17 -7 20 -40 20 -38 0 -40 2 -40 30 0 25 4 30 25 30 18 0 25 5 25 20 0 15 -7 20 -25 20 -21 0 -25 5 -25 30 0 28 2 30 40 30 33 0 40 3 40 20 0 18 -7 20 -65 20 l-65 0 0 -120z"/>
<path d="M2910 3160 l0 -120 25 0 c23 0 25 3 25 50 0 48 1 50 28 50 38 0 62 28 62 72 0 49 -25 68 -88 68 l-52 0 0 -120z m88 47 c3 -22 -1 -27 -17 -27 -17 0 -21 6 -21 31 0 24 4 30 18 27 10 -2 18 -14 20 -31z"/>
<path d="M3140 3277 c0 -2 -11 -55 -25 -117 -14 -62 -25 -115 -25 -117 0 -1 11 -3 25 -3 18 0 25 5 25 20 0 15 7 20 24 20 16 0 27 -7 31 -20 4 -13 15 -20 32 -20 16 0 23 5 20 13 -2 6 -15 60 -27 120 -22 106 -23 107 -51 107 -16 0 -29 -2 -29 -3z m40 -129 c0 -19 -5 -28 -16 -28 -11 0 -14 5 -10 16 3 9 6 28 6 42 0 21 2 24 10 12 5 -8 10 -27 10 -42z"/>
<path d="M3300 3160 l0 -120 60 0 c53 0 60 2 60 19 0 16 -8 20 -37 23 l-38 3 -3 98 c-2 89 -4 97 -22 97 -19 0 -20 -7 -20 -120z"/>
<path d="M3470 3160 l0 -120 25 0 25 0 0 120 0 120 -25 0 -25 0 0 -120z"/>
<path d="M3860 3160 l0 -120 25 0 c23 0 25 3 25 50 0 43 3 50 20 50 17 0 20 -7 20 -50 0 -47 2 -50 25 -50 l25 0 0 120 0 120 -25 0 c-23 0 -25 -3 -25 -50 0 -43 -3 -50 -20 -50 -17 0 -20 7 -20 50 0 47 -2 50 -25 50 l-25 0 0 -120z"/>
<path d="M4072 3173 c-12 -59 -22 -114 -22 -120 0 -21 41 -15 47 7 3 13 14 20 29 20 17 0 24 -6 24 -20 0 -15 7 -20 25 -20 30 0 30 -2 1 130 -22 103 -23 105 -52 108 l-29 3 -23 -108z m62 -15 c6 -31 4 -38 -9 -38 -16 0 -19 20 -9 58 8 28 10 26 18 -20z"/>
<path d="M4250 3160 l0 -120 25 0 c23 0 25 3 25 50 0 28 4 50 8 50 5 0 14 -22 21 -50 11 -43 16 -50 37 -50 28 0 29 4 9 60 -13 37 -13 44 0 63 19 28 19 67 -1 95 -12 18 -25 22 -70 22 l-54 0 0 -120z m85 50 c0 -16 -6 -26 -17 -28 -14 -3 -18 3 -18 28 0 25 4 31 18 28 11 -2 17 -12 17 -28z"/>
<path d="M2815 2906 c-100 -25 -151 -69 -205 -177 -18 -35 -40 -63 -53 -68 -12 -5 -61 -14 -108 -20 -90 -12 -195 -39 -186 -47 3 -3 29 2 58 10 99 28 170 35 234 22 58 -12 62 -15 104 -75 46 -66 111 -121 143 -121 24 0 23 7 -5 44 -13 17 -40 61 -59 99 l-36 67 52 0 c49 0 54 -3 101 -51 28 -27 73 -68 100 -89 52 -40 244 -124 270 -118 11 2 4 19 -27 62 -103 143 -176 197 -288 214 l-55 8 35 19 c28 15 56 19 140 19 105 1 105 1 182 44 140 78 150 101 46 108 -62 5 -54 -2 15 -11 26 -3 47 -10 47 -14 0 -5 -41 -32 -91 -60 -62 -35 -108 -54 -140 -58 -27 -3 -49 -3 -49 0 0 3 26 13 57 22 55 16 131 51 163 76 13 9 12 10 -2 5 -11 -3 -18 0 -18 7 0 7 -9 1 -19 -12 -17 -22 -19 -23 -28 -6 -9 16 -11 16 -16 1 -5 -12 -3 -15 6 -10 6 4 8 3 4 -2 -4 -4 -19 -9 -33 -10 -19 -1 -24 3 -19 15 3 9 -4 4 -16 -12 -11 -15 -25 -25 -29 -22 -5 3 -12 0 -16 -6 -5 -8 -3 -9 7 -4 8 5 11 4 6 -1 -5 -5 -12 -9 -15 -9 -4 0 -14 -5 -22 -10 -11 -7 -11 -3 2 15 32 44 40 66 14 35 -14 -16 -26 -26 -26 -21 0 5 -11 -1 -24 -13 -20 -19 -24 -20 -29 -7 -4 9 -1 15 5 13 7 -1 12 5 13 13 0 18 100 68 158 80 39 7 40 8 10 9 -53 2 -166 -55 -203 -101 -42 -52 -143 -101 -222 -106 -32 -2 -65 -1 -75 2 -14 6 -11 11 19 29 20 12 70 60 110 107 41 47 82 91 91 99 9 7 14 17 11 22 -7 11 -27 10 -89 -5z m75 -3 c-1 -14 -208 -223 -221 -223 -7 0 9 24 36 53 125 131 129 136 106 130 -12 -3 -29 -20 -38 -37 -14 -28 -17 -29 -23 -11 -6 16 -8 13 -13 -14 -4 -18 -11 -30 -17 -26 -6 3 -7 0 -4 -9 4 -11 0 -16 -10 -16 -9 0 -16 8 -17 18 0 9 -7 -2 -16 -26 -14 -40 -16 -42 -30 -25 -14 17 -14 17 -9 0 3 -11 2 -16 -4 -12 -6 3 -10 -1 -10 -9 0 -9 -5 -16 -10 -16 -32 0 66 150 119 182 46 29 161 58 161 41z m246 -142 c-9 -8 -18 -12 -22 -9 -9 10 3 25 21 25 14 0 14 -2 1 -16z m-448 -133 c35 -33 67 -109 50 -120 -9 -5 -7 -8 7 -8 19 -1 62 -46 52 -56 -3 -3 -15 5 -28 18 -13 13 -32 27 -42 31 -10 4 -15 11 -12 17 3 5 0 10 -8 10 -16 0 -30 26 -22 40 3 4 -4 10 -15 13 -25 6 -26 24 -2 30 10 3 5 5 -12 6 -21 1 -27 5 -22 16 4 11 -1 15 -19 15 -14 0 -25 5 -25 11 0 19 70 2 98 -23z m320 -12 c26 -13 70 -48 97 -77 51 -54 121 -149 110 -149 -3 0 -31 11 -63 23 -31 13 -78 31 -104 41 -32 12 -74 43 -135 102 -48 47 -81 82 -73 77 8 -4 23 -8 33 -8 10 0 21 -4 25 -10 10 -14 32 -17 32 -5 0 6 5 10 10 10 7 0 7 -6 0 -19 -12 -24 -13 -42 -1 -22 6 10 12 3 21 -23 7 -21 14 -35 16 -33 3 2 0 16 -6 31 -17 46 2 54 23 11 16 -36 18 -37 13 -10 l-5 30 14 -30 c8 -16 15 -37 15 -45 0 -8 7 -1 15 15 l14 30 -5 -35 c-3 -27 -2 -31 5 -15 9 18 10 17 12 -10 1 -24 3 -26 6 -7 6 31 23 28 24 -5 0 -22 2 -24 8 -10 6 17 8 16 20 -7 13 -24 41 -43 41 -28 0 11 -110 132 -120 132 -5 0 -11 -8 -13 -17 -2 -10 -3 -8 -2 4 3 27 -21 44 -101 73 -58 21 -58 21 -16 15 24 -3 65 -16 90 -29z"/>
<path d="M2238 2713 c6 -2 18 -2 25 0 6 3 1 5 -13 5 -14 0 -19 -2 -12 -5z"/>
<path d="M2150 2694 c-19 -8 -48 -25 -65 -38 -63 -48 -63 -48 -184 -5 -62 21 -124 39 -139 38 -15 0 3 -8 43 -19 90 -24 120 -37 176 -80 48 -36 59 -60 59 -136 0 -38 47 -134 66 -134 8 0 14 7 14 15 0 8 -6 12 -14 9 -12 -5 -16 1 -25 41 -2 6 -8 16 -14 24 -10 12 -9 12 10 3 12 -7 24 -22 26 -34 2 -13 5 19 6 70 l1 92 39 -19 c39 -20 46 -31 77 -131 28 -90 69 -161 138 -235 35 -38 66 -68 69 -65 2 3 2 23 -1 45 l-6 40 -6 -34 -5 -34 -67 82 c-64 79 -110 171 -132 265 -6 26 -5 28 8 17 9 -8 16 -25 17 -40 l1 -26 7 25 c7 23 9 21 18 -20 9 -35 11 -39 12 -17 1 16 5 26 10 23 5 -3 7 -16 3 -28 -4 -17 -2 -20 11 -15 12 5 18 -1 23 -21 13 -61 26 -91 37 -89 13 2 13 -5 2 -38 -6 -16 -5 -17 4 -5 9 13 11 13 12 -2 3 -31 4 -36 12 -44 11 -12 8 23 -9 90 -16 63 -42 108 -30 51 5 -24 4 -27 -4 -12 -6 9 -9 26 -5 36 4 12 -8 35 -35 70 -22 28 -37 51 -33 51 5 0 -1 7 -11 15 -18 14 -17 15 25 15 31 0 56 -8 82 -26 79 -53 115 -64 217 -62 l95 1 -105 6 c-73 5 -114 12 -135 24 l-30 18 33 -7 c18 -3 38 -2 45 3 7 5 23 10 37 10 24 1 24 0 -5 -13 -28 -12 -25 -13 50 -12 44 0 72 2 62 5 -9 2 -14 9 -11 15 5 7 2 8 -6 3 -7 -4 -25 -9 -39 -11 -24 -2 -24 -2 -8 11 20 14 23 13 -48 15 -11 1 -38 -1 -60 -4 l-40 -4 38 19 c20 11 37 22 37 24 0 3 -13 -1 -30 -10 -34 -17 -44 -19 -35 -5 4 6 -3 6 -21 0 -15 -6 -29 -8 -32 -5 -3 3 0 5 7 5 7 0 9 5 5 12 -5 8 -2 9 10 5 10 -4 15 -3 11 3 -4 6 18 11 57 12 l63 2 -54 3 c-33 3 -68 -2 -92 -11 -22 -9 -69 -16 -107 -16 -54 0 -80 6 -131 30 -47 23 -62 34 -57 46 3 9 6 18 6 20 0 2 8 4 18 4 34 0 172 55 172 68 0 11 -5 11 -26 -3 -30 -20 -43 -13 -23 12 11 15 10 15 -9 -1 -12 -11 -22 -16 -22 -11 0 4 -7 2 -15 -5 -8 -6 -13 -17 -12 -23 1 -7 -5 -12 -13 -12 -8 0 -14 8 -14 18 2 15 -1 16 -14 5 -8 -7 -23 -13 -32 -13 -9 0 -24 -6 -34 -14 -9 -8 -19 -11 -22 -8 -9 9 62 57 113 77 26 11 41 19 33 19 -8 0 -31 -7 -50 -15z m-30 -70 c0 -8 -19 -13 -24 -6 -3 5 1 9 9 9 8 0 15 -2 15 -3z m-43 -56 c12 -14 19 -41 21 -90 4 -68 4 -70 -16 -59 -32 17 -37 33 -16 49 19 14 19 15 -1 8 -11 -4 -16 -4 -13 0 4 4 3 15 -3 25 -8 15 -6 19 6 19 9 0 14 -4 10 -9 -3 -5 -1 -12 4 -15 5 -4 8 1 7 10 -1 9 -10 21 -20 26 -14 8 -15 12 -4 26 7 9 8 13 3 10 -6 -4 -16 2 -22 12 -10 15 -9 17 7 13 10 -3 27 -14 37 -25z"/>
<path d="M2328 2693 c28 -9 52 -19 52 -23 0 -4 -19 -12 -42 -19 -24 -7 -72 -23 -108 -36 -36 -13 -78 -26 -94 -30 -15 -3 -26 -8 -24 -10 6 -6 77 14 196 55 76 26 91 35 80 45 -15 15 -74 35 -97 34 -9 0 8 -8 37 -16z"/>
<path d="M2566 2509 c43 -12 130 -72 127 -87 -2 -7 2 -12 7 -12 19 0 10 18 -27 50 -39 35 -92 61 -120 59 -10 0 -4 -5 13 -10z"/>
<path d="M2322 2412 c47 -50 73 -105 88 -187 l9 -50 -4 53 c-2 30 -16 79 -30 110 -25 55 -79 122 -98 122 -6 0 10 -22 35 -48z"/>
<path d="M2281 2334 c0 -11 3 -14 6 -6 3 7 2 16 -1 19 -3 4 -6 -2 -5 -13z"/>
<path d="M2311 2324 c0 -11 3 -14 6 -6 3 7 2 16 -1 19 -3 4 -6 -2 -5 -13z"/>
<path d="M2330 2265 c0 -5 5 -17 10 -25 5 -8 10 -10 10 -5 0 6 -5 17 -10 25 -5 8 -10 11 -10 5z"/>
</g>
</svg>