<svg xmlns="http://www.w3.org/2000/svg" version="1.0" preserveAspectRatio="xMidYMid meet" viewBox="169 181.64 162.82 97.37">

<g transform="translate(0.000000,500.000000) scale(0.100000,-0.100000)" fill="#000000" stroke="none">
<path d="M1743 3182 c-43 -6 -53 -37 -53 -157 0 -98 2 -114 20 -133 27 -29 83 -29 110 -2 18 18 20 33 20 138 0 101 -3 121 -17 134 -21 18 -49 25 -80 20z m37 -158 c0 -77 -3 -94 -15 -94 -12 0 -15 17 -15 93 0 52 3 97 6 100 17 17 24 -12 24 -99z"/>
<path d="M2793 3182 c-43 -6 -53 -37 -53 -157 0 -98 2 -114 20 -133 27 -29 83 -29 110 -2 18 18 20 33 20 138 0 101 -3 121 -17 134 -21 18 -49 25 -80 20z m37 -158 c0 -77 -3 -94 -15 -94 -12 0 -15 17 -15 93 0 52 3 97 6 100 17 17 24 -12 24 -99z"/>
<path d="M1902 3039 c3 -126 5 -142 22 -155 29 -21 82 -18 106 6 18 18 20 33 20 155 l0 135 -30 0 -30 0 0 -125 c0 -104 -2 -125 -15 -125 -13 0 -15 21 -15 125 l0 125 -31 0 -31 0 4 -141z"/>
<path d="M2110 3025 l0 -155 35 0 35 0 0 70 c0 40 4 70 10 70 6 0 10 -30 10 -70 l0 -70 30 0 30 0 0 74 c0 41 -4 78 -10 81 -6 4 -4 16 6 31 11 16 15 36 11 60 -9 56 -22 64 -93 64 l-64 0 0 -155z m94 86 c8 -12 -3 -41 -15 -41 -5 0 -9 11 -9 25 0 25 14 34 24 16z"/>
<path d="M2440 3163 c0 -10 7 -76 15 -148 8 -71 15 -133 15 -137 0 -5 18 -8 40 -8 39 0 40 1 41 38 1 20 5 48 9 62 7 22 8 20 9 -15 2 -72 10 -85 47 -85 40 0 38 -3 54 155 6 61 13 120 16 133 4 19 0 22 -31 22 l-35 0 -1 -57 c-1 -80 -17 -127 -18 -57 -2 92 -10 114 -41 114 -27 0 -28 0 -35 -87 -9 -100 -11 -99 -20 10 -7 77 -7 77 -36 77 -21 0 -29 -5 -29 -17z"/>
<path d="M2950 3025 l0 -155 35 0 35 0 0 70 c0 40 4 70 10 70 6 0 10 -30 10 -70 l0 -70 30 0 30 0 0 74 c0 41 -4 78 -10 81 -6 4 -4 16 6 31 11 16 15 36 11 60 -9 56 -22 64 -93 64 l-64 0 0 -155z m94 86 c8 -12 -3 -41 -15 -41 -5 0 -9 11 -9 25 0 25 14 34 24 16z"/>
<path d="M3160 3025 l0 -155 35 0 35 0 1 58 c1 59 4 55 23 -30 5 -23 12 -28 36 -28 35 0 36 2 11 98 -18 70 -18 74 -1 142 l18 70 -33 0 c-30 0 -33 -3 -42 -42 l-11 -43 -1 43 c-1 41 -2 42 -36 42 l-35 0 0 -155z"/>
<path d="M2668 2713 c6 -2 18 -2 25 0 6 3 1 5 -13 5 -14 0 -19 -2 -12 -5z"/>
<path d="M2725 2685 c-44 -37 -69 -47 -40 -15 28 31 2 23 -31 -9 -17 -17 -37 -31 -45 -33 -8 -2 -17 -7 -20 -12 -4 -5 -12 -5 -18 -2 -8 5 -5 17 10 39 l21 32 -25 -29 c-14 -16 -23 -35 -20 -42 2 -6 -1 -15 -8 -20 -8 -5 -10 -3 -4 7 5 9 2 8 -11 -3 -10 -9 -35 -18 -54 -20 l-35 -3 50 -18 c44 -15 54 -24 78 -70 27 -50 72 -95 84 -83 3 3 -2 24 -12 46 -10 22 -20 38 -22 36 -3 -2 3 -18 12 -36 21 -40 15 -47 -13 -15 -12 14 -19 25 -14 25 4 0 2 4 -3 8 -16 11 -45 60 -45 76 0 8 -8 17 -17 19 -15 4 -14 5 3 6 20 1 57 -31 67 -59 4 -12 6 -12 6 2 1 9 -5 20 -11 24 -9 6 -5 10 12 15 23 6 22 7 -7 8 -19 1 -33 6 -33 14 0 11 62 67 75 67 13 0 -8 -22 -39 -41 -17 -10 -26 -19 -20 -19 10 0 124 88 164 126 28 27 4 13 -35 -21z"/>
<path d="M2001 2656 c10 -9 69 -36 69 -32 0 6 -55 36 -66 36 -4 0 -5 -2 -3 -4z"/>
<path d="M2918 2653 c12 -2 32 -2 45 0 12 2 2 4 -23 4 -25 0 -35 -2 -22 -4z"/>
<path d="M2868 2643 c7 -3 16 -2 19 1 4 3 -2 6 -13 5 -11 0 -14 -3 -6 -6z"/>
<path d="M3013 2638 c15 -5 24 -14 21 -20 -5 -7 -2 -8 6 -3 10 6 9 11 -5 22 -11 7 -26 13 -34 12 -9 0 -4 -5 12 -11z"/>
<path d="M2330 2630 c8 -5 20 -10 25 -10 6 0 3 5 -5 10 -8 5 -19 10 -25 10 -5 0 -3 -5 5 -10z"/>
<path d="M2792 2606 c-36 -29 -39 -34 -20 -34 13 0 50 -2 83 -5 44 -3 49 -3 20 3 l-40 7 34 1 c19 1 31 5 28 9 -4 3 -1 13 5 22 10 12 7 12 -8 -2 -24 -20 -40 -11 -21 12 11 14 10 14 -5 2 -10 -7 -16 -16 -14 -20 2 -3 -7 -6 -20 -6 -30 0 -31 9 -2 29 12 9 18 16 13 16 -6 0 -29 -15 -53 -34z"/>
<path d="M2184 2614 c-18 -14 -18 -14 6 -3 31 14 36 19 24 19 -6 0 -19 -7 -30 -16z"/>
<path d="M2925 2610 c-20 -23 -12 -25 33 -9 18 6 29 15 26 21 -4 6 -10 6 -17 -1 -14 -14 -30 -14 -22 -1 10 17 -1 11 -20 -10z"/>
<path d="M2108 2588 c27 -29 32 -41 32 -84 0 -57 16 -114 33 -114 7 0 7 4 -1 12 -16 16 -16 51 1 42 6 -4 4 2 -5 13 -21 23 -24 48 -5 37 9 -6 9 -5 1 7 -7 8 -11 25 -10 39 1 14 -3 28 -9 32 -6 5 -6 8 2 8 6 0 15 -4 18 -10 3 -5 18 -10 33 -9 24 0 25 1 7 9 -17 7 -14 9 15 10 19 1 53 8 75 15 36 12 37 13 10 11 -17 -1 -36 -5 -41 -9 -16 -9 -142 1 -167 14 -16 9 -14 3 11 -23z"/>
<path d="M2385 2600 c-3 -5 -1 -10 4 -10 6 0 11 5 11 10 0 6 -2 10 -4 10 -3 0 -8 -4 -11 -10z"/>
<path d="M2990 2600 c-8 -5 -10 -10 -5 -10 6 0 17 5 25 10 8 5 11 10 5 10 -5 0 -17 -5 -25 -10z"/>
<path d="M2328 2583 c7 -3 16 -2 19 1 4 3 -2 6 -13 5 -11 0 -14 -3 -6 -6z"/>
<path d="M2940 2580 c-8 -5 -10 -10 -5 -10 6 0 17 5 25 10 8 5 11 10 5 10 -5 0 -17 -5 -25 -10z"/>
<path d="M2278 2573 c7 -3 16 -2 19 1 4 3 -2 6 -13 5 -11 0 -14 -3 -6 -6z"/>
<path d="M2403 2573 c9 -2 23 -2 30 0 6 3 -1 5 -18 5 -16 0 -22 -2 -12 -5z"/>
<path d="M2238 2563 c7 -3 16 -2 19 1 4 3 -2 6 -13 5 -11 0 -14 -3 -6 -6z"/>
<path d="M2323 2563 c9 -2 23 -2 30 0 6 3 -1 5 -18 5 -16 0 -22 -2 -12 -5z"/>
<path d="M2670 2552 c0 -22 23 -30 54 -19 l31 11 -25 7 c-35 10 -60 10 -60 1z"/>
<path d="M2180 2542 c0 -6 9 -12 20 -15 11 -3 20 -3 20 -1 0 2 -9 8 -20 14 -11 6 -20 7 -20 2z"/>
<path d="M2741 2529 c-13 -5 -21 -12 -18 -15 3 -3 15 -1 26 6 15 8 27 8 44 0 21 -11 21 -10 3 4 -22 18 -23 18 -55 5z"/>
<path d="M2239 2507 c6 -6 11 -20 12 -31 0 -12 3 -15 6 -8 7 19 23 4 16 -16 -4 -13 -2 -13 10 3 16 20 16 20 10 -3 -4 -16 2 -30 21 -49 15 -14 23 -29 19 -32 -12 -9 -9 -46 3 -44 6 1 11 -12 12 -29 0 -16 4 -33 8 -37 12 -11 -6 110 -21 139 -18 35 -19 43 -2 34 6 -4 0 6 -16 23 -15 16 -25 31 -23 34 3 2 -11 9 -30 15 -25 8 -32 8 -25 1z m74 -72 c-7 -21 -12 -19 -10 4 0 11 5 18 9 15 4 -3 5 -11 1 -19z"/>
<path d="M2757 2513 c-13 -12 -7 -25 9 -19 18 7 44 -16 44 -39 0 -9 5 -13 10 -10 6 3 10 1 10 -4 0 -6 7 -11 15 -11 8 0 15 -5 15 -11 0 -15 28 -41 38 -35 5 3 14 -6 21 -21 10 -22 9 -25 -4 -19 -9 3 -13 2 -10 -4 6 -10 35 -14 35 -5 0 16 -32 65 -39 60 -5 -2 -16 6 -25 20 -21 32 -20 41 1 24 12 -10 11 -5 -4 17 -12 17 -30 37 -40 45 -11 8 -9 3 5 -12 36 -41 25 -43 -20 -5 -43 37 -50 41 -61 29z"/>
<path d="M2728 2473 c16 -21 40 -47 53 -58 13 -11 1 6 -26 38 -55 64 -73 77 -27 20z"/>
<path d="M2181 2484 c0 -11 3 -14 6 -6 3 7 2 16 -1 19 -3 4 -6 -2 -5 -13z"/>
<path d="M2357 2493 c-28 -4 -28 -5 24 -44 29 -21 57 -39 63 -39 6 1 -1 8 -16 16 -35 19 -36 27 -2 13 15 -5 29 -8 31 -6 8 9 -53 41 -72 39 -20 -3 -20 -2 -1 13 11 8 16 14 10 14 -5 -1 -22 -4 -37 -6z"/>
<path d="M2500 2476 c0 -2 7 -7 16 -10 8 -3 12 -2 9 4 -6 10 -25 14 -25 6z"/>
<path d="M2555 2440 c10 -11 20 -20 23 -20 3 0 -3 9 -13 20 -10 11 -20 20 -23 20 -3 0 3 -9 13 -20z"/>
<path d="M2470 2430 c0 -5 14 -10 32 -10 36 0 35 4 -4 14 -17 4 -28 2 -28 -4z"/>
<path d="M2261 2414 c0 -11 3 -14 6 -6 3 7 2 16 -1 19 -3 4 -6 -2 -5 -13z"/>
<path d="M2483 2403 c9 -2 25 -2 35 0 9 3 1 5 -18 5 -19 0 -27 -2 -17 -5z"/>
<path d="M2810 2395 c0 -2 18 -14 40 -25 22 -11 40 -18 40 -15 0 2 -18 14 -40 25 -22 11 -40 18 -40 15z"/>
<path d="M2271 2374 c0 -11 3 -14 6 -6 3 7 2 16 -1 19 -3 4 -6 -2 -5 -13z"/>
<path d="M2361 2354 c0 -11 3 -14 6 -6 3 7 2 16 -1 19 -3 4 -6 -2 -5 -13z"/>
<path d="M2339 2243 c6 -12 16 -25 22 -28 20 -13 15 0 -9 25 -22 23 -24 23 -13 3z"/>
</g>
</svg>